PathFileType	4	(X/Y/Z)	/Users/niels/Desktop/University/Third Semester/Perception and Action/Exam/Gymnastics Motion Tracking/Code for Gym Tracking/Analyzed Data/Webcam_Backflip/id2001_2_baseline_Sports2D/id2001_2_baseline_Sports2D_px_person00.trc
DataRate	CameraRate	NumFrames	NumMarkers	Units	OrigDataRate	OrigDataStartFrame	OrigNumFrames
29.888475836431226	29.888475836431226	11	22	m	29.888475836431226	100	269
Frame#	Time	Hip			RHip			RKnee			RAnkle			RBigToe			RSmallToe			RHeel			LHip			LKnee			LAnkle			LBigToe			LSmallToe			LHeel			Neck			Head			Nose			RShoulder			RElbow			RWrist			LShoulder			LElbow			LWrist		
		X1	Y1	Z1	X2	Y2	Z2	X3	Y3	Z3	X4	Y4	Z4	X5	Y5	Z5	X6	Y6	Z6	X7	Y7	Z7	X8	Y8	Z8	X9	Y9	Z9	X10	Y10	Z10	X11	Y11	Z11	X12	Y12	Z12	X13	Y13	Z13	X14	Y14	Z14	X15	Y15	Z15	X16	Y16	Z16	X17	Y17	Z17	X18	Y18	Z18	X19	Y19	Z19	X20	Y20	Z20	X21	Y21	Z21	X22	Y22	Z22
100	3.3457711442786073	1.0065454810580607	-0.7307555248494224	0.0	1.0315021808846945	-0.744377752304434	0.0	1.092140282580318	-1.062108971784792	0.0	1.3164244570408905	-1.0535322121671762	0.0	1.501814722914991	-1.0739037398017488	0.0	1.427968332621904	-1.0985157675617263	0.0	1.327812614761923	-1.1008022528483954	0.0	0.9686509382875218	-0.7413307548793214	0.0	0.9923218269801342	-1.0600425769657424	0.0	1.2367350078885746	-1.092294186066143	0.0	1.4169824218746223	-1.0925839843747596	0.0	1.4258959960937496	-1.08961279296875	0.0	1.2179379412953952	-1.0965467531830366	0.0	1.0613326885494379	-0.22040547381030665	0.0	1.1220917277136064	-0.032842104730713716	0.0	1.1372693490425083	-0.11992713559323949	0.0	1.0535363778392273	-0.279311617098728	0.0	1.1042362473132654	-0.554608109728744	0.0	1.180734064441333	-0.7999752602636511	0.0	1.0135044393517336	-0.2750616920715293	0.0	0.9996625330580131	-0.5437171328637568	0.0	1.0951246385389424	-0.7595408989192344	0.0
101	3.379228855721393	1.0054642494573467	-0.7328240428397778	0.0	1.0328205944122815	-0.7452175322689505	0.0	1.110800721463728	-1.0623538101251284	0.0	1.3162675742035115	-1.05321550062403	0.0	1.5018119343575473	-1.073903326770748	0.0	1.4279651891785161	-1.098515799368574	0.0	1.32781904818439	-1.100811197652793	0.0	0.9653322984466718	-0.743827470312258	0.0	0.9947311332468192	-1.059898574773858	0.0	1.236730966250422	-1.0921824853479105	0.0	1.416982421874997	-1.0925839843749576	0.0	1.4258959960937496	-1.08961279296875	0.0	1.217912028552139	-1.0965456482981706	0.0	1.058399944153903	-0.22624884343047394	0.0	1.118117642756867	-0.039233653130053135	0.0	1.1351012769791249	-0.12751680228002632	0.0	1.0526958883766477	-0.28347124082873926	0.0	1.1066908727200289	-0.5557070696692156	0.0	1.1908495900658616	-0.7974133151858559	0.0	1.0078944910549879	-0.27982779919219053	0.0	0.9893091324857113	-0.5474599328431707	0.0	1.0963604708134027	-0.7606398423593905	0.0
102	3.4126865671641795	1.0044762161293164	-0.7345644832811759	0.0	1.0341582413469457	-0.7454283301881269	0.0	1.1332155525193264	-1.0622063615808859	0.0	1.3160662604562279	-1.0529092804837044	0.0	1.5018042722527534	-1.0739042369365381	0.0	1.4279688381525846	-1.098515762446529	0.0	1.3278048202787989	-1.1008474411999554	0.0	0.9622442793233763	-0.7459995377524278	0.0	0.9973419795937024	-1.0596867408301667	0.0	1.2367387893569777	-1.0920980550053063	0.0	1.4169824218759064	-1.0925839843754652	0.0	1.4258959960937496	-1.08961279296875	0.0	1.2178974010811878	-1.0965451279442313	0.0	1.0545651882215783	-0.23223442453713777	0.0	1.1134007631824117	-0.045829148293718314	0.0	1.1320067152649207	-0.1348867364063186	0.0	1.0501021955585537	-0.28720214107151804	0.0	1.1088723523947905	-0.5559906241765832	0.0	1.2025006085256045	-0.7926013798687144	0.0	1.0025591355396275	-0.28522457404797	0.0	0.9812954027165663	-0.5510182879694759	0.0	1.100420338870229	-0.7606350980275645	0.0
103	3.4461442786069654	1.0035183150399098	-0.7350689967688202	0.0	1.0348601158488553	-0.7443568357143632	0.0	1.1592489697418775	-1.0608486548855989	0.0	1.3158888996969769	-1.052829140646963	0.0	1.5017898123299966	-1.0739077575933869	0.0	1.4279865564685514	-1.0985155831642428	0.0	1.3277498407403743	-1.1009261251573146	0.0	0.9598983893869635	-0.747174658297862	0.0	0.9996841649862801	-1.0594377658522458	0.0	1.2367624079104291	-1.0921320776892	0.0	1.4169824218775173	-1.0925839843763911	0.0	1.4258959960937496	-1.08961279296875	0.0	1.2178913789891028	-1.0965449892880137	0.0	1.0504756624900842	-0.23777399691400103	0.0	1.1079949095342336	-0.05177612907501556	0.0	1.1281248956770664	-0.14136670744248142	0.0	1.0451757750474944	-0.28966044605872393	0.0	1.1098408432495406	-0.554801455442608	0.0	1.2144797589162624	-0.7846909230452332	0.0	0.9994002164600667	-0.2909002792101404	0.0	0.9798804665305451	-0.55372441077089	0.0	1.1082250791920747	-0.7593997952742433	0.0
104	3.4796019900497517	1.0024228266855022	-0.7338361575705102	0.0	1.0345474552250262	-0.7416965978977753	0.0	1.1887354404326256	-1.0570131176925266	0.0	1.3158854934144462	-1.0533493192004229	0.0	1.5017683363832606	-1.0739153008693059	0.0	1.4280267760690812	-1.0985151762033452	0.0	1.3276320780302253	-1.101056189290307	0.0	0.9583012801089923	-0.7470462036383136	0.0	1.0015122938300463	-1.0593341478683715	0.0	1.2367861859056795	-1.092433703505471	0.0	1.4169824218797742	-1.092583984377725	0.0	1.4258959960937496	-1.08961279296875	0.0	1.2178905340985753	-1.096545045609503	0.0	1.0466927385824265	-0.24247044524951508	0.0	1.1022386773806698	-0.05651409344291818	0.0	1.1236750074714157	-0.1465222905796652	0.0	1.0379032121391898	-0.29044144499236063	0.0	1.1089757363907047	-0.5519716785133357	0.0	1.2257477529525749	-0.7736457563876735	0.0	0.9996691349773461	-0.2965754369666165	0.0	0.985984142303534	-0.5553249449640478	0.0	1.1195501746935725	-0.7565802576086628	0.0
105	3.5130597014925375	1.0010773960918031	-0.7309199698534465	0.0	1.033205153042461	-0.7375210483884396	0.0	1.2213847419054271	-1.048934062632159	0.0	1.316305713330215	-1.0549838361143706	0.0	1.5017439017256993	-1.0739276582838082	0.0	1.4280952154920292	-1.098514483700973	0.0	1.3274391985850225	-1.1012257061018909	0.0	0.9570853890777178	-0.7456569830363828	0.0	1.0028824123213813	-1.0596561541167397	0.0	1.236772133978827	-1.0931908972620297	0.0	1.416982421882121	-1.0925839843791751	0.0	1.4258959960937496	-1.08961279296875	0.0	1.2178920543337546	-1.0965451672212305	0.0	1.043527734102178	-0.24626013000719918	0.0	1.0968407504958486	-0.05995485143140769	0.0	1.118955579868227	-0.1503416343355271	0.0	1.029016742723875	-0.2898877385411749	0.0	1.1061205706424073	-0.5479021820795238	0.0	1.2355486720913165	-0.7602409271653168	0.0	1.0035216227484394	-0.3021482746185415	0.0	0.9975339017364485	-0.5559593465087798	0.0	1.1333466944918476	-0.7517189971168624	0.0
106	3.546517412935324	0.9994455916991801	-0.7266732648270167	0.0	1.0308200802079672	-0.7321306390180465	0.0	1.256049984323275	-1.034398800284996	0.0	1.317477485568328	-1.0582494250079026	0.0	1.5017282709954076	-1.0739436005862324	0.0	1.428187282300092	-1.0985135521255736	0.0	1.327190423542678	-1.1013799939675195	0.0	0.9559358942672626	-0.7432353756211216	0.0	1.0038439085819069	-1.0605714410506935	0.0	1.2366590658019418	-1.0945606673415431	0.0	1.4169824218831517	-1.0925839843799594	0.0	1.4258959960937496	-1.08961279296875	0.0	1.217894140703444	-1.0965452829712932	0.0	1.0410584573962673	-0.24932770295248738	0.0	1.092593634067606	-0.06236439125505263	0.0	1.114351478029326	-0.15313793911970724	0.0	1.0196947462527717	-0.28889923912598836	0.0	1.1014344878046758	-0.5433549638836712	0.0	1.2433241406362736	-0.7456453785688478	0.0	1.0102656320170242	-0.3076049283880784	0.0	1.011628809858311	-0.5558870990262743	0.0	1.148352238883066	-0.7447524117916843	0.0
107	3.5799751243781097	0.9975470475135301	-0.7215134231885477	0.0	1.0271225366816645	-0.7260150145827642	0.0	1.290244025112717	-1.0113673112767794	0.0	1.3197039616917636	-1.063331696225336	0.0	1.5017441843001265	-1.0739578067481244	0.0	1.428276407787497	-1.0985126503118452	0.0	1.3269688508110897	-1.101396542378763	0.0	0.9550996454850029	-0.7401340820262478	0.0	1.0044245233823024	-1.0619585266052856	0.0	1.236370471878793	-1.0965216785014142	0.0	1.4169824218803204	-1.0925839843786176	0.0	1.4258959960937496	-1.08961279296875	0.0	1.2178958978248613	-1.096545365069722	0.0	1.0392976911517748	-0.25188179972353153	0.0	1.0899678233488388	-0.06413620244869205	0.0	1.1103320842640256	-0.1552950807147949	0.0	1.0109670077481057	-0.2884210924912421	0.0	1.0952284234875096	-0.5390686509949901	0.0	1.248529925157094	-0.7309070135490854	0.0	1.0190731484847213	-0.3128940925953257	0.0	1.026085290669235	-0.5553291299960151	0.0	1.1634380933678101	-0.7364125786226495	0.0
108	3.613432835820896	0.9954567757056305	-0.7159651618756608	0.0	1.021831361719283	-0.7199182053461254	0.0	1.3207964707137825	-0.9791347475766986	0.0	1.3230301274876342	-1.0694928363535268	0.0	1.50182611064803	-1.0739585215312875	0.0	1.428300152575321	-1.09851241005088	0.0	1.326958002331441	-1.1010686043212232	0.0	0.9554225182892413	-0.7368760727573279	0.0	1.0047508022716163	-1.063556833999017	0.0	1.2358412074914558	-1.0986345548560186	0.0	1.4169824218699838	-1.0925839843730025	0.0	1.4258959960937496	-1.08961279296875	0.0	1.2178970449194506	-1.0965454111248927	0.0	1.0383713264143088	-0.25400380238125964	0.0	1.088957745572329	-0.06564436454545582	0.0	1.1073618718279274	-0.15705769481104204	0.0	1.0033618827415218	-0.28896120515217455	0.0	1.0879320856130292	-0.5354995944939054	0.0	1.2507435418789992	-0.7168858213878699	0.0	1.0294574935613383	-0.3179006277931502	0.0	1.039664669466129	-0.5545072743428857	0.0	1.1775306285219764	-0.7283560604345152	0.0
109	3.646890547263682	0.9932819961856119	-0.7106171735353415	0.0	1.0149548673655724	-0.714627817188771	0.0	1.345134761357164	-0.9390547922010619	0.0	1.3269388039141117	-1.0745746943471814	0.0	1.5020144018609447	-1.0739260866309959	0.0	1.4281499941017604	-1.098513929425155	0.0	1.3274647182255779	-1.1001205091131212	0.0	0.9578333792989301	-0.7340115982026687	0.0	1.004959826511249	-1.0652218031332965	0.0	1.2350741349347258	-1.099734772800586	0.0	1.4169824218482223	-1.0925839843607061	0.0	1.4258959960937496	-1.08961279296875	0.0	1.2178976306792135	-1.0965454298752013	0.0	1.0384729458431061	-0.2557094831500856	0.0	1.089353023891704	-0.06715583253853888	0.0	1.1058019243177148	-0.15854628579638827	0.0	0.9969806266911062	-0.2904036263807807	0.0	1.0800058744748962	-0.532774465913108	0.0	1.2499743328423036	-0.7045146708796954	0.0	1.0410900213811307	-0.322571977331643	0.0	1.0518287370729935	-0.5537137896168339	0.0	1.1894059401709771	-0.7229458122316427	0.0
110	3.680348258706468	0.9911730804385691	-0.7059346603696309	0.0	1.0067974439665097	-0.7105779463328928	0.0	1.3619531649200434	-0.8940830832837109	0.0	1.330234185051669	-1.075468361206149	0.0	1.5023372853911545	-1.0738345481244265	0.0	1.4276767086390192	-1.0985187183507452	0.0	1.328894012273137	-1.098289808158093	0.0	0.9628279192534749	-0.7318478384040844	0.0	1.0052428415455108	-1.066927731784705	0.0	1.2342332144032133	-1.097662715400189	0.0	1.416982421813009	-1.0925839843402614	0.0	1.4258959960937496	-1.08961279296875	0.0	1.2178978266665252	-1.0965454322960095	0.0	1.0396616987091851	-0.2570767675722683	0.0	1.0911361070843086	-0.06875524476129494	0.0	1.1058518101226986	-0.1599103159596482	0.0	0.9917309721454749	-0.29219567588072165	0.0	1.0717993263612222	-0.5308011816272824	0.0	1.246732389908366	-0.6948635472692765	0.0	1.0534103329000148	-0.32706304802303254	0.0	1.0624981892554783	-0.5533274620806833	0.0	1.197648418518045	-0.722500137541886	0.0
